<mxfile host="app.diagrams.net" modified="2021-06-11T15:24:23.571Z" agent="5.0 (Windows NT 10.0; Win64; x64) AppleWebKit/537.36 (KHTML, like Gecko) Chrome/91.0.4472.101 Safari/537.36" etag="fjOfnDn_SYO6VEbMOj6T" version="14.7.7" type="github">
  <diagram id="R2lEEEUBdFMjLlhIrx00" name="Page-1">
    <mxGraphModel dx="1422" dy="762" grid="1" gridSize="10" guides="1" tooltips="1" connect="1" arrows="1" fold="1" page="1" pageScale="1" pageWidth="850" pageHeight="1100" math="0" shadow="0" extFonts="Permanent Marker^https://fonts.googleapis.com/css?family=Permanent+Marker">
      <root>
        <mxCell id="0" />
        <mxCell id="1" parent="0" />
        <mxCell id="UYrqvJpGGlT6MHvFk9Dt-1" value="USER" style="swimlane;childLayout=stackLayout;horizontal=1;startSize=30;horizontalStack=0;rounded=1;fontSize=14;fontStyle=0;strokeWidth=2;resizeParent=0;resizeLast=1;shadow=0;dashed=0;align=center;" vertex="1" parent="1">
          <mxGeometry x="50" y="90" width="160" height="120" as="geometry" />
        </mxCell>
        <mxCell id="UYrqvJpGGlT6MHvFk9Dt-2" value="ID&#xa;Benutzernamen&#xa;Email&#xa;Passwort&#xa;Profilbild&#xa;" style="align=left;strokeColor=none;fillColor=none;spacingLeft=4;fontSize=12;verticalAlign=top;resizable=0;rotatable=0;part=1;" vertex="1" parent="UYrqvJpGGlT6MHvFk9Dt-1">
          <mxGeometry y="30" width="160" height="90" as="geometry" />
        </mxCell>
        <mxCell id="UYrqvJpGGlT6MHvFk9Dt-6" value="Sprache" style="swimlane;childLayout=stackLayout;horizontal=1;startSize=30;horizontalStack=0;rounded=1;fontSize=14;fontStyle=0;strokeWidth=2;resizeParent=0;resizeLast=1;shadow=0;dashed=0;align=center;" vertex="1" parent="1">
          <mxGeometry x="600" y="90" width="160" height="120" as="geometry">
            <mxRectangle x="600" y="90" width="80" height="30" as="alternateBounds" />
          </mxGeometry>
        </mxCell>
        <mxCell id="UYrqvJpGGlT6MHvFk9Dt-7" value="SID&#xa;Namen&#xa;Sprachfile&#xa;Leaderboard" style="align=left;strokeColor=none;fillColor=none;spacingLeft=4;fontSize=12;verticalAlign=top;resizable=0;rotatable=0;part=1;" vertex="1" parent="UYrqvJpGGlT6MHvFk9Dt-6">
          <mxGeometry y="30" width="160" height="90" as="geometry" />
        </mxCell>
        <mxCell id="UYrqvJpGGlT6MHvFk9Dt-14" value="" style="endArrow=none;html=1;rounded=0;entryX=0;entryY=0.6;entryDx=0;entryDy=0;exitX=1;exitY=0.611;exitDx=0;exitDy=0;exitPerimeter=0;entryPerimeter=0;" edge="1" parent="1" source="UYrqvJpGGlT6MHvFk9Dt-2" target="UYrqvJpGGlT6MHvFk9Dt-7">
          <mxGeometry relative="1" as="geometry">
            <mxPoint x="214" y="165" as="sourcePoint" />
            <mxPoint x="480" y="160" as="targetPoint" />
          </mxGeometry>
        </mxCell>
        <mxCell id="UYrqvJpGGlT6MHvFk9Dt-15" value="N" style="resizable=0;html=1;align=right;verticalAlign=bottom;" connectable="0" vertex="1" parent="UYrqvJpGGlT6MHvFk9Dt-14">
          <mxGeometry x="1" relative="1" as="geometry">
            <mxPoint x="-10" y="-4" as="offset" />
          </mxGeometry>
        </mxCell>
      </root>
    </mxGraphModel>
  </diagram>
</mxfile>
